{"accessors" : [{"bufferView" : 0, "byteOffset" : 0, "componentType" : 5123, "count" : 13056, "type" : "SCALAR", "max" : [10977], "min" : [0]}, {"bufferView" : 1, "byteOffset" : 0, "componentType" : 5126, "count" : 10978, "type" : "VEC3", "max" : [0.5202664136886597, 0.5545740723609924, 0.7095627188682556], "min" : [-0.5202663540840149, -0.41605767607688904, -0.7095627188682556], "name" : "POSITION"}, {"bufferView" : 1, "byteOffset" : 12, "componentType" : 5126, "count" : 10978, "type" : "VEC3", "max" : [0.9999864101409912, 1.0000044107437134, 0.998503565788269], "min" : [-0.9999864101409912, -1.0000044107437134, -0.998503565788269], "name" : "NORMAL"}, {"bufferView" : 1, "byteOffset" : 24, "componentType" : 5126, "count" : 10978, "type" : "VEC2", "max" : [1.1322345733642578, 1.106998085975647], "min" : [0.125, 0.07021588087081909], "name" : "TEXCOORD_0"}], "asset" : {"generator" : "Aspose.3D 24.1.0", "version" : "2.0"}, "buffers" : [{"uri" : "data:application/octet-stream;base64,", "byteLength" : 443912}], "bufferViews" : [{"buffer" : 0, "byteOffset" : 0, "byteLength" : 26112, "target" : 34963}, {"buffer" : 0, "byteOffset" : 26116, "byteLength" : 417792, "byteStride" : 32, "target" : 34962}], "images" : [{"uri" : "data:image/jpeg;base64,"}, {"uri" : "data:image/jpeg;base64,"}], "materials" : [{"name" : "anisotropic1", "pbrMetallicRoughness" : {"baseColorFactor" : [1, 1, 1, 1], "baseColorTexture" : {"index" : 1, "texCoord" : 0}, "metallicFactor" : 1, "roughnessFactor" : 1}, "normalTexture" : {"index" : 0, "texCoord" : 0, "scale" : 1}, "emissiveFactor" : [0, 0, 0], "alphaMode" : "OPAQUE", "doubleSided" : false}], "meshes" : [{"primitives" : [{"attributes" : {"POSITION" : 1, "NORMAL" : 2, "TEXCOORD_0" : 3}, "indices" : 0, "material" : 0, "mode" : 4}], "name" : ""}], "nodes" : [{"matrix" : [6.123233995736766E-17, 0, -1, 0, 0, 0.7877402228827239, 0, 0, 1, 0, 6.123233995736766E-17, 0, 0, 8.881784197001252E-16, 0, 1], "mesh" : 0, "name" : "pCube6"}], "samplers" : [{"magFilter" : 9729, "minFilter" : 9729, "wrapS" : 10497, "wrapT" : 10497}, {"magFilter" : 9729, "minFilter" : 9729, "wrapS" : 10497, "wrapT" : 10497}], "scene" : 0, "scenes" : [{"nodes" : [0]}], "textures" : [{"sampler" : 0, "source" : 0, "name" : "file2"}, {"sampler" : 1, "source" : 1, "name" : "file1"}]}